<?xml version="1.0" standalone="no"?>
<!DOCTYPE svg PUBLIC "-//W3C//DTD SVG 20010904//EN"
 "http://www.w3.org/TR/2001/REC-SVG-20010904/DTD/svg10.dtd">
<svg version="1.0" xmlns="http://www.w3.org/2000/svg"
 width="1080.000000pt" height="1080.000000pt" viewBox="0 0 1080.000000 1080.000000"
 preserveAspectRatio="xMidYMid meet">
<metadata>
Created by potrace 1.14, written by Peter Selinger 2001-2017
</metadata>
<g transform="translate(0.000000,1080.000000) scale(0.100000,-0.100000)"
fill="#000000" stroke="none">
<path d="M6110 9121 c0 -4 -27 -11 -60 -15 -33 -4 -62 -11 -65 -16 -4 -6 -17
-10 -31 -10 -13 0 -24 -4 -24 -10 0 -5 -11 -12 -25 -16 -14 -3 -25 -10 -25
-15 0 -5 -11 -9 -25 -9 -16 0 -25 -6 -25 -15 0 -8 -5 -15 -11 -15 -6 0 -17 -6
-24 -12 -33 -30 -45 -38 -55 -38 -5 0 -10 -4 -10 -10 0 -5 -7 -10 -15 -10 -8
0 -15 -7 -15 -15 0 -8 -5 -15 -11 -15 -14 0 -39 -25 -39 -39 0 -6 -11 -11 -25
-11 -14 0 -25 -5 -25 -11 0 -14 -25 -39 -39 -39 -6 0 -11 -7 -11 -15 0 -8 -5
-15 -11 -15 -6 0 -24 -13 -40 -29 -25 -25 -29 -37 -29 -83 -1 -31 -7 -61 -15
-72 -8 -11 -15 -37 -15 -58 0 -21 -4 -38 -8 -38 -16 0 -35 -157 -39 -312 -2
-87 -8 -158 -12 -158 -4 0 -11 -143 -15 -317 -4 -184 -11 -319 -17 -321 -5 -2
-9 -64 -9 -143 0 -76 -4 -139 -9 -139 -5 0 -12 -29 -16 -65 -3 -36 -11 -65
-16 -65 -5 0 -9 -15 -9 -32 0 -18 -7 -42 -15 -52 -8 -11 -15 -30 -15 -42 0
-12 -3 -24 -7 -26 -11 -4 -43 -67 -43 -84 0 -8 -4 -14 -9 -14 -5 0 -12 -13
-16 -30 -4 -16 -11 -30 -16 -30 -5 0 -9 -9 -9 -21 0 -11 -7 -27 -15 -35 -8 -9
-15 -26 -15 -40 0 -13 -4 -24 -10 -24 -5 0 -10 -10 -10 -22 0 -13 -7 -32 -15
-42 -8 -11 -15 -32 -15 -48 0 -15 -4 -28 -10 -28 -5 0 -10 -14 -10 -30 0 -17
-7 -47 -15 -67 -8 -19 -15 -51 -15 -69 0 -19 -4 -34 -10 -34 -5 0 -12 -22 -16
-50 -4 -27 -10 -50 -15 -50 -5 0 -9 -22 -9 -49 0 -34 -4 -51 -15 -55 -10 -4
-15 -20 -15 -51 0 -25 -4 -45 -10 -45 -5 0 -10 -18 -10 -39 0 -25 -5 -41 -15
-45 -11 -4 -15 -20 -15 -56 0 -27 -4 -50 -8 -50 -9 0 -30 -85 -39 -157 -3 -24
-9 -43 -13 -43 -5 0 -12 -25 -15 -55 -4 -30 -11 -55 -16 -55 -5 0 -9 -21 -9
-46 0 -27 -6 -51 -15 -60 -8 -9 -15 -33 -15 -55 0 -21 -4 -39 -10 -39 -5 0
-10 -22 -10 -49 0 -34 -4 -51 -15 -55 -11 -4 -15 -20 -15 -56 0 -27 -4 -50 -8
-50 -10 0 -31 -90 -39 -162 -3 -27 -9 -48 -14 -48 -4 0 -11 -22 -15 -50 -4
-27 -10 -50 -15 -50 -5 0 -9 -27 -9 -59 0 -35 -5 -61 -11 -63 -6 -2 -14 -27
-17 -56 -2 -29 -8 -52 -12 -52 -4 0 -11 -34 -15 -75 -4 -41 -11 -75 -16 -75
-5 0 -9 -22 -9 -50 0 -27 -4 -50 -9 -50 -5 0 -11 -22 -15 -50 l-7 -50 -149 0
c-93 0 -150 4 -150 10 0 6 -31 10 -74 10 -56 0 -75 4 -80 15 -3 8 -17 15 -31
15 -14 0 -25 4 -25 8 0 5 -11 15 -25 22 -14 7 -25 17 -25 22 0 5 -11 19 -25
32 -14 13 -25 31 -25 40 0 10 -7 24 -15 32 -8 9 -15 26 -15 40 0 13 -4 24 -10
24 -5 0 -10 18 -10 40 0 27 -5 43 -15 46 -11 5 -15 22 -15 65 0 32 -4 59 -9
59 -5 0 -11 23 -13 52 -3 29 -11 54 -17 56 -7 2 -11 35 -11 92 0 57 -4 90 -11
92 -7 2 -14 42 -17 101 -2 53 -9 97 -13 97 -5 0 -9 196 -9 435 0 239 4 435 9
435 4 0 11 28 15 63 3 34 11 64 16 65 6 2 10 10 10 18 0 19 59 18 84 -1 28
-21 176 -21 176 0 0 8 4 15 9 15 5 0 12 11 15 25 4 14 11 25 16 25 6 0 10 64
10 164 0 113 4 166 11 168 17 6 17 620 1 626 -8 2 -12 33 -12 87 0 61 -4 86
-15 95 -10 9 -15 32 -15 76 0 35 -4 64 -9 64 -5 0 -12 22 -16 50 -4 27 -11 52
-16 56 -5 3 -9 16 -9 30 0 13 -4 24 -9 24 -5 0 -13 25 -16 55 -4 30 -11 55
-16 55 -5 0 -9 32 -9 71 0 49 -4 75 -15 85 -10 11 -15 36 -15 80 0 36 -4 64
-10 64 -6 0 -10 97 -10 270 0 173 4 270 10 270 6 0 10 28 10 65 l0 65 -71 0
c-63 0 -73 -3 -99 -27 -41 -39 -58 -53 -65 -53 -10 0 -35 -28 -35 -39 0 -6 -7
-11 -15 -11 -8 0 -15 -7 -15 -15 0 -8 -5 -15 -11 -15 -13 0 -39 -25 -39 -39 0
-6 -18 -28 -40 -50 -22 -22 -40 -42 -40 -46 0 -4 -12 -19 -27 -35 -16 -15 -39
-42 -53 -60 -14 -18 -31 -38 -37 -45 -7 -8 -13 -16 -13 -20 0 -10 -27 -35 -38
-35 -5 0 -13 -11 -16 -25 -4 -17 -13 -25 -27 -25 -11 0 -27 -6 -34 -12 -8 -7
-21 -19 -30 -26 -22 -19 -23 -933 0 -1008 8 -27 15 -86 15 -131 0 -49 4 -83
10 -83 6 0 10 -80 10 -220 0 -140 -4 -220 -10 -220 -6 0 -10 -44 -10 -112 0
-62 -7 -162 -15 -223 -19 -144 -22 -1605 -3 -1746 6 -49 9 -92 5 -96 -10 -9
-240 -3 -247 6 -3 5 -15 11 -27 15 -13 4 -23 12 -23 17 0 5 -11 9 -25 9 -16 0
-25 6 -25 15 0 8 -5 15 -11 15 -6 0 -17 6 -25 14 -8 8 -14 19 -14 25 0 6 -7
11 -15 11 -8 0 -15 7 -15 15 0 8 -4 15 -9 15 -5 0 -12 16 -15 35 -4 19 -11 35
-16 35 -6 0 -10 11 -10 25 0 14 -4 25 -10 25 -5 0 -13 18 -16 40 -4 22 -10 40
-15 40 -5 0 -9 21 -9 46 0 27 -6 51 -15 60 -8 9 -15 29 -15 45 0 16 -4 29 -10
29 -5 0 -10 18 -10 39 0 22 -7 46 -15 55 -8 8 -15 31 -15 50 0 20 -4 36 -9 36
-5 0 -11 18 -15 40 -3 22 -11 40 -16 40 -6 0 -10 21 -10 46 0 27 -6 51 -15 60
-8 9 -15 29 -15 45 0 16 -4 29 -10 29 -5 0 -10 15 -10 34 0 19 -5 36 -11 38
-6 2 -14 27 -17 56 -2 29 -8 52 -13 52 -5 0 -9 10 -9 23 0 13 -7 32 -15 43 -9
11 -14 42 -15 77 0 31 -4 57 -9 57 -5 0 -11 28 -13 62 -3 35 -10 64 -16 66 -9
3 -12 68 -12 237 l0 234 34 35 c18 20 41 36 50 36 9 0 16 5 16 10 0 6 36 10
88 10 75 0 90 3 105 20 9 11 17 29 17 40 0 11 5 20 10 20 6 0 10 37 10 90 0
53 -4 90 -10 90 -5 0 -10 18 -10 39 0 22 -7 46 -15 55 -8 8 -15 32 -15 54 0
22 -5 42 -10 44 -6 2 -13 36 -17 76 -3 39 -10 72 -14 72 -5 0 -9 27 -9 59 0
35 -5 61 -11 63 -6 2 -14 27 -17 56 -2 29 -8 52 -13 52 -5 0 -9 29 -9 65 0 51
-3 65 -15 65 -11 0 -15 12 -15 50 0 28 -4 50 -9 50 -4 0 -11 23 -14 52 -4 28
-11 56 -17 62 -5 5 -10 33 -10 62 0 31 -5 54 -12 56 -6 2 -13 30 -16 61 -2 32
-8 60 -13 63 -5 3 -9 23 -9 44 0 21 -5 40 -11 42 -6 2 -13 32 -16 67 l-6 63
-30 -6 c-16 -3 -45 -22 -63 -41 -18 -19 -37 -35 -43 -35 -6 0 -11 -7 -11 -15
0 -8 -4 -15 -9 -15 -5 0 -12 -11 -15 -25 -4 -14 -11 -25 -16 -25 -6 0 -10 -7
-10 -15 0 -8 -4 -15 -9 -15 -5 0 -12 -11 -15 -25 -4 -14 -11 -25 -16 -25 -6 0
-10 -11 -10 -25 0 -14 -4 -25 -10 -25 -5 0 -12 -11 -16 -25 -3 -14 -10 -25
-15 -25 -5 0 -9 -11 -9 -24 0 -14 -7 -31 -15 -40 -8 -8 -15 -26 -15 -40 0 -14
-4 -26 -9 -26 -5 0 -11 -18 -15 -40 -3 -22 -11 -40 -16 -40 -6 0 -10 -15 -10
-34 0 -19 -4 -37 -9 -40 -5 -3 -12 -26 -15 -51 -4 -25 -11 -45 -17 -45 -5 0
-9 -10 -9 -22 0 -13 -7 -32 -15 -42 -8 -11 -15 -30 -15 -43 0 -13 -4 -23 -9
-23 -5 0 -11 -18 -15 -40 -3 -22 -11 -40 -16 -40 -6 0 -10 -18 -10 -40 0 -22
-4 -40 -10 -40 -5 0 -12 -27 -16 -60 -4 -33 -11 -60 -15 -60 -5 0 -9 -36 -9
-80 0 -47 -4 -80 -10 -80 -6 0 -10 -42 -10 -105 0 -63 4 -105 10 -105 6 0 10
-53 10 -140 0 -87 4 -140 10 -140 6 0 10 -58 10 -155 0 -97 -4 -155 -10 -155
-6 0 -10 -32 -10 -75 0 -43 4 -75 10 -75 6 0 10 -28 10 -65 0 -51 3 -65 15
-65 11 0 15 -11 15 -40 0 -22 4 -40 10 -40 5 0 12 -11 16 -25 3 -14 10 -25 15
-25 5 0 9 -11 9 -24 0 -13 7 -26 15 -30 8 -3 15 -15 15 -26 0 -11 5 -20 10
-20 6 0 10 -7 10 -15 0 -8 7 -15 15 -15 8 0 15 -9 15 -19 0 -10 7 -21 15 -25
8 -3 15 -12 15 -21 0 -8 5 -15 10 -15 6 0 10 -9 10 -19 0 -10 7 -21 15 -25 8
-3 15 -12 15 -21 0 -8 5 -15 10 -15 6 0 10 -11 10 -24 0 -14 7 -31 15 -40 8
-8 15 -24 15 -35 0 -12 3 -21 8 -21 10 0 32 -83 39 -145 3 -27 10 -53 15 -56
5 -3 12 -25 15 -48 3 -22 10 -41 14 -41 5 0 9 -22 9 -49 0 -27 5 -51 11 -53 6
-2 13 -25 16 -51 3 -26 9 -47 13 -47 4 0 10 -28 14 -62 3 -35 11 -64 16 -66 6
-2 10 -21 10 -43 0 -21 4 -39 9 -39 4 0 11 -27 15 -60 4 -33 11 -60 16 -60 6
0 10 -23 10 -51 0 -31 6 -56 15 -65 8 -9 15 -29 15 -45 0 -16 5 -29 10 -29 6
0 10 -16 10 -35 0 -19 5 -35 10 -35 6 0 10 -6 10 -14 0 -8 6 -21 14 -28 7 -8
16 -23 20 -35 11 -33 81 -103 104 -103 12 0 22 -4 22 -10 0 -5 18 -13 40 -16
22 -4 40 -10 40 -15 0 -17 412 -30 480 -14 35 8 60 26 60 43 0 6 6 12 13 15 9
3 11 38 10 140 -2 116 0 137 12 137 8 0 15 -6 15 -14 0 -8 7 -16 15 -20 8 -3
15 -12 15 -21 0 -8 5 -15 10 -15 6 0 10 -7 10 -15 0 -8 7 -15 15 -15 9 0 15
-9 15 -25 0 -14 4 -25 8 -25 5 0 17 -17 28 -37 10 -21 30 -50 44 -65 42 -46
50 -57 50 -68 0 -5 6 -10 13 -10 7 0 24 -11 39 -25 15 -14 32 -25 38 -25 5 0
10 -4 10 -10 0 -5 11 -12 25 -16 14 -3 25 -10 25 -14 0 -4 18 -10 40 -14 22
-3 40 -11 40 -16 0 -6 29 -10 64 -10 41 0 66 -4 68 -12 6 -17 380 -17 386 0 2
8 30 12 78 12 41 0 74 4 74 9 0 5 10 13 22 17 12 4 35 19 50 35 27 27 28 30
28 138 l0 111 25 0 c16 0 25 -6 25 -15 0 -8 4 -15 10 -15 5 0 12 -11 16 -25 3
-14 10 -25 14 -25 4 0 11 -11 14 -25 4 -14 11 -25 16 -25 6 0 10 -12 10 -26 0
-14 6 -32 13 -39 27 -31 37 -44 37 -50 0 -11 58 -65 69 -65 6 0 11 -4 11 -9 0
-5 11 -12 25 -15 14 -4 25 -11 25 -16 0 -6 18 -10 39 -10 22 0 41 -5 43 -11 2
-7 68 -13 181 -16 97 -3 177 -10 177 -15 0 -4 51 -8 113 -8 62 0 196 -7 297
-15 172 -15 190 -14 260 2 41 9 80 22 87 27 34 30 43 36 51 36 6 0 13 11 16
25 5 21 12 25 41 25 42 0 43 -4 10 -34 -14 -13 -25 -28 -25 -35 0 -6 -4 -11
-9 -11 -5 0 -13 -10 -17 -22 -4 -13 -17 -33 -30 -45 -13 -12 -24 -27 -24 -33
0 -6 -11 -21 -25 -34 -14 -13 -25 -26 -25 -30 0 -4 -7 -14 -15 -22 -8 -9 -15
-26 -15 -38 0 -19 7 -25 38 -30 20 -3 49 -6 65 -6 15 0 27 -4 27 -10 0 -5 11
-10 25 -10 14 0 25 -4 25 -9 0 -5 14 -12 30 -16 17 -4 30 -11 30 -16 0 -5 9
-9 21 -9 11 0 27 -7 35 -15 9 -8 26 -15 40 -15 13 0 24 -4 24 -9 0 -11 73 -31
140 -38 25 -3 48 -10 52 -17 10 -16 396 -16 406 0 4 7 30 14 57 17 28 3 70 10
95 15 48 11 80 2 80 -23 0 -7 3 -15 8 -17 15 -6 42 -70 42 -99 0 -16 5 -29 10
-29 6 0 10 -13 10 -29 0 -16 7 -36 15 -45 12 -11 15 -40 15 -125 0 -67 4 -111
10 -111 6 0 10 -18 10 -40 0 -22 -4 -40 -10 -40 -6 0 -10 -32 -10 -76 0 -52
-4 -80 -14 -90 -20 -19 -105 -19 -112 1 -4 10 -20 15 -45 15 -21 0 -39 4 -39
9 0 4 -27 11 -60 15 -33 4 -60 11 -60 16 0 6 -18 10 -39 10 -22 0 -41 5 -43
11 -2 6 -25 13 -51 16 -26 3 -47 10 -47 14 0 5 -22 9 -49 9 -34 0 -51 4 -55
15 -3 10 -19 15 -46 15 -22 0 -40 4 -40 9 0 4 -21 11 -47 14 -26 3 -49 10 -51
16 -2 6 -21 11 -43 11 -21 0 -39 4 -39 9 0 4 -21 11 -47 14 -26 3 -49 10 -51
16 -2 6 -24 11 -49 11 -36 0 -50 6 -74 29 -29 29 -29 31 -29 148 -1 88 -4 123
-15 137 -8 11 -15 30 -15 43 0 13 -4 23 -10 23 -5 0 -10 7 -10 15 0 8 -5 15
-11 15 -6 0 -17 7 -25 15 -9 8 -24 15 -35 15 -10 0 -19 5 -19 10 0 6 -19 10
-42 10 -24 0 -52 7 -62 15 -11 8 -37 15 -58 15 -21 0 -38 4 -38 9 0 5 -34 12
-75 16 -41 4 -77 11 -81 16 -3 5 -101 9 -220 9 l-214 0 0 -40 c0 -22 -4 -40
-10 -40 -6 0 -10 -45 -10 -115 0 -70 4 -115 10 -115 6 0 10 -18 10 -40 0 -22
4 -40 10 -40 5 0 12 -11 16 -25 3 -14 10 -25 15 -25 5 0 9 -5 9 -11 0 -13 25
-39 38 -39 5 0 15 -11 22 -25 7 -14 19 -25 26 -25 6 0 14 -7 18 -15 3 -8 15
-15 26 -15 11 0 20 -4 20 -10 0 -5 13 -10 28 -10 16 0 37 -7 48 -15 12 -9 43
-14 87 -15 37 0 67 -4 67 -8 0 -5 46 -12 102 -15 57 -4 104 -11 106 -17 2 -5
28 -10 58 -10 30 0 54 -4 54 -10 0 -5 16 -12 35 -16 19 -3 35 -10 35 -15 0 -5
18 -9 40 -9 22 0 40 -4 40 -10 0 -5 18 -13 40 -16 22 -4 40 -10 40 -15 0 -5
10 -9 23 -9 13 0 32 -7 43 -15 10 -8 29 -15 42 -15 12 0 22 -4 22 -10 0 -5 11
-10 24 -10 14 0 31 -7 40 -15 8 -8 31 -15 50 -15 20 0 36 -4 36 -10 0 -5 18
-13 40 -16 22 -4 40 -10 40 -15 0 -5 11 -9 25 -9 14 0 25 -4 25 -10 0 -5 16
-12 35 -16 19 -3 35 -10 35 -15 0 -5 12 -9 26 -9 14 0 32 -7 40 -15 9 -8 29
-15 45 -15 16 0 29 -4 29 -10 0 -5 16 -12 35 -16 19 -3 35 -10 35 -15 0 -5 14
-9 30 -9 17 0 30 -4 30 -9 0 -5 16 -12 35 -15 19 -4 35 -11 35 -16 0 -6 10
-10 21 -10 26 0 123 -32 127 -42 2 -5 15 -8 29 -8 13 0 31 -7 39 -15 9 -8 33
-15 55 -15 21 0 39 -4 39 -9 0 -5 23 -11 50 -15 28 -4 50 -11 50 -16 0 -6 44
-10 105 -10 58 0 105 4 105 9 0 4 21 11 47 14 26 3 49 10 51 16 2 6 12 11 22
11 34 0 110 48 110 69 0 6 5 11 11 11 14 0 69 55 69 69 0 6 4 11 10 11 5 0 12
11 16 25 3 14 10 25 15 25 5 0 9 11 9 25 0 14 4 25 10 25 5 0 12 11 16 25 3
14 10 25 15 25 5 0 9 9 9 21 0 11 7 27 15 35 8 9 15 29 15 45 0 16 4 29 9 29
5 0 12 11 15 25 4 14 11 25 16 25 6 0 10 11 10 25 0 14 4 25 9 25 5 0 12 11
15 25 4 14 11 25 16 25 6 0 10 9 10 19 0 21 30 84 43 89 4 2 7 11 7 20 0 10 7
26 15 36 8 11 15 30 15 43 0 13 4 23 9 23 5 0 12 11 15 25 4 14 11 25 16 25 6
0 10 11 10 25 0 14 4 25 9 25 5 0 12 13 16 30 4 17 10 30 15 30 4 0 10 12 13
27 9 43 31 117 37 123 12 10 39 93 34 101 -8 14 -24 10 -24 -6 0 -8 -5 -15
-11 -15 -14 0 -39 -25 -39 -39 0 -6 -5 -11 -11 -11 -14 0 -39 -25 -39 -39 0
-6 -4 -11 -9 -11 -5 0 -12 -11 -15 -25 -4 -14 -11 -25 -16 -25 -6 0 -10 -7
-10 -15 0 -8 -4 -15 -10 -15 -5 0 -12 -11 -16 -25 -3 -14 -9 -25 -14 -25 -4 0
-15 -17 -26 -37 -10 -21 -25 -44 -31 -51 -7 -7 -13 -20 -13 -28 0 -8 -4 -14
-10 -14 -5 0 -10 -7 -10 -15 0 -8 -4 -15 -10 -15 -5 0 -12 -11 -16 -25 -3 -14
-10 -25 -15 -25 -5 0 -9 -9 -9 -20 0 -11 -7 -23 -15 -26 -8 -4 -15 -12 -15
-20 0 -8 -3 -14 -7 -14 -11 0 -43 -58 -43 -76 0 -8 -4 -14 -10 -14 -5 0 -10
-7 -10 -15 0 -8 -7 -15 -15 -15 -9 0 -15 -9 -15 -24 0 -13 -7 -26 -15 -30 -8
-3 -15 -15 -15 -26 0 -11 -4 -20 -9 -20 -5 0 -11 -8 -15 -17 -6 -19 -27 -55
-37 -63 -4 -3 -9 -15 -13 -27 -4 -13 -12 -23 -17 -23 -5 0 -9 -7 -9 -15 0 -8
-4 -15 -9 -15 -5 0 -13 -10 -16 -21 -4 -12 -20 -35 -36 -50 -24 -23 -39 -29
-74 -29 -45 0 -45 0 -45 35 0 19 -4 35 -10 35 -5 0 -10 25 -10 55 0 30 5 55
10 55 6 0 10 11 10 25 0 16 -6 25 -15 25 -8 0 -15 -4 -15 -10 0 -5 -4 -10 -10
-10 -5 0 -10 15 -10 34 0 19 -5 36 -11 38 -6 2 -13 25 -16 51 -3 26 -10 47
-14 47 -5 0 -9 7 -9 15 0 8 4 15 9 15 5 0 12 23 16 50 4 28 11 50 16 50 5 0 9
16 9 35 0 19 -4 35 -9 35 -5 0 -12 13 -16 30 -4 16 -10 30 -14 30 -4 0 -14 11
-21 25 -7 14 -19 25 -27 25 -7 0 -13 7 -13 15 0 8 -4 15 -10 15 -5 0 -12 11
-16 25 -3 14 -11 25 -16 25 -13 0 -38 26 -38 39 0 6 -5 11 -11 11 -14 0 -39
25 -39 39 0 6 -5 11 -11 11 -19 0 -39 28 -39 54 0 23 4 26 34 26 19 0 36 4 38
10 5 14 171 16 176 2 2 -7 10 -12 18 -12 8 0 14 -5 14 -11 0 -6 23 -33 50 -60
28 -27 50 -53 50 -59 0 -5 18 -28 40 -50 22 -22 40 -43 40 -46 0 -10 28 -34
39 -34 6 0 11 -5 11 -11 0 -6 6 -17 13 -24 29 -33 37 -45 37 -55 0 -5 11 -10
25 -10 14 0 25 5 25 10 0 6 -4 10 -10 10 -5 0 -10 23 -10 51 0 28 -5 59 -10
69 -6 11 -13 46 -17 80 l-6 60 79 0 c43 0 86 5 94 10 10 6 11 10 3 10 -7 0
-13 6 -13 14 0 8 -11 17 -25 20 -14 4 -25 11 -25 16 0 6 -9 10 -20 10 -12 0
-31 11 -44 25 -13 14 -33 25 -45 25 -11 0 -21 4 -21 9 0 5 -11 12 -25 15 -14
4 -25 11 -25 16 0 6 -7 10 -15 10 -21 0 -19 7 10 34 14 13 25 28 25 35 0 6 7
11 15 11 8 0 15 5 15 11 0 6 6 17 13 24 29 33 37 45 37 55 0 5 5 10 11 10 13
0 39 25 39 38 0 5 11 13 25 16 14 4 25 11 25 16 0 6 5 10 11 10 14 0 39 25 39
39 0 6 7 11 15 11 8 0 15 5 15 10 0 6 7 10 15 10 8 0 15 7 15 15 0 8 7 15 15
15 9 0 26 11 39 25 13 14 28 25 35 25 6 0 11 4 11 10 0 5 11 12 25 16 14 3 25
10 25 15 0 5 7 9 15 9 8 0 15 7 15 15 0 8 7 15 15 15 9 0 26 11 39 25 13 14
26 25 30 25 4 0 21 12 36 28 16 15 36 33 45 40 20 17 20 62 0 62 -8 0 -15 7
-15 15 0 8 -7 15 -15 15 -8 0 -15 5 -15 10 0 13 -97 13 -102 1 -1 -5 -41 -10
-88 -11 -109 -3 -107 -3 -114 17 -7 18 19 47 52 57 12 4 22 12 22 17 0 5 7 9
15 9 8 0 15 5 15 10 0 6 7 10 15 10 9 0 18 7 21 15 4 8 10 15 15 15 15 0 49
39 49 55 0 8 7 15 15 15 8 0 15 5 15 11 0 7 11 22 25 35 14 13 25 32 25 44 0
11 5 20 11 20 14 0 38 30 39 48 0 7 11 23 25 36 14 13 25 32 25 44 0 11 7 22
15 26 8 3 15 15 15 26 0 11 3 20 8 20 8 0 42 90 42 113 0 8 5 17 11 19 5 2 13
22 16 46 3 23 10 42 14 42 5 0 9 20 9 44 0 24 5 46 11 48 6 2 14 27 17 56 2
29 8 52 13 52 5 0 9 10 9 23 0 12 4 28 9 35 12 20 21 -9 21 -69 0 -27 5 -49
10 -49 6 0 10 71 10 194 0 163 2 195 15 200 9 3 15 19 15 41 0 19 5 35 10 35
6 0 10 11 10 24 0 27 24 56 46 56 11 0 14 17 14 75 0 43 4 75 10 75 6 0 10 16
10 35 0 19 -4 35 -10 35 -5 0 -10 -9 -10 -20 0 -11 -7 -23 -15 -26 -9 -4 -15
-19 -15 -36 0 -18 -9 -38 -25 -52 -16 -15 -25 -34 -25 -54 0 -17 -6 -32 -15
-36 -8 -3 -15 -17 -15 -31 0 -14 -4 -25 -10 -25 -5 0 -10 -9 -10 -20 0 -11 -7
-23 -15 -26 -8 -4 -15 -17 -15 -30 0 -13 -4 -24 -10 -24 -5 0 -10 -11 -10 -24
0 -14 -7 -31 -15 -40 -8 -8 -15 -26 -15 -40 0 -14 -4 -26 -10 -26 -5 0 -12
-11 -16 -25 -3 -14 -10 -25 -15 -25 -5 0 -9 -11 -9 -25 0 -14 -4 -25 -10 -25
-5 0 -12 -11 -16 -25 -3 -14 -10 -25 -15 -25 -5 0 -9 -13 -9 -29 0 -16 -7 -36
-15 -45 -8 -8 -15 -24 -15 -35 0 -12 -4 -21 -9 -21 -5 0 -12 -11 -15 -25 -4
-14 -11 -25 -16 -25 -6 0 -10 -9 -10 -19 0 -21 -30 -84 -42 -89 -5 -2 -8 -14
-8 -27 0 -13 -7 -30 -15 -39 -8 -8 -15 -24 -15 -35 0 -12 -4 -21 -9 -21 -5 0
-12 -11 -15 -25 -4 -14 -11 -25 -16 -25 -6 0 -10 -13 -10 -30 0 -16 -4 -30
-10 -30 -5 0 -10 -9 -10 -20 0 -11 -7 -23 -15 -26 -8 -4 -15 -17 -15 -30 0
-13 -4 -24 -10 -24 -5 0 -12 -16 -16 -35 -3 -19 -10 -35 -15 -35 -5 0 -9 -8
-9 -19 0 -10 -7 -24 -15 -31 -8 -7 -15 -23 -15 -36 0 -13 -4 -24 -9 -24 -5 0
-12 -11 -15 -25 -4 -14 -11 -25 -16 -25 -6 0 -10 -5 -10 -11 0 -14 -25 -39
-39 -39 -6 0 -11 -7 -11 -15 0 -8 -7 -15 -15 -15 -8 0 -15 -4 -15 -10 0 -5
-18 -10 -40 -10 -22 0 -40 4 -40 9 0 4 -106 10 -235 13 -161 3 -239 8 -247 16
-7 7 -22 12 -35 12 -13 0 -23 5 -23 10 0 6 -7 10 -15 10 -8 0 -25 11 -39 25
-14 14 -30 25 -36 25 -5 0 -10 7 -10 15 0 8 -5 15 -11 15 -14 0 -39 26 -39 40
0 6 -6 18 -12 25 -30 33 -38 45 -38 55 0 5 -4 10 -10 10 -5 0 -13 18 -16 40
-4 22 -10 40 -15 40 -5 0 -9 45 -9 100 0 55 4 100 9 100 5 0 11 18 15 40 3 22
11 40 16 40 6 0 10 11 10 25 0 14 4 25 9 25 5 0 12 11 15 25 4 14 11 25 16 25
6 0 10 12 10 26 0 14 7 32 15 40 8 9 15 26 15 40 0 13 4 24 9 24 5 0 12 11 15
25 4 14 11 25 16 25 6 0 10 11 10 25 0 14 4 25 9 25 5 0 12 11 15 25 4 14 11
25 16 25 6 0 10 11 10 24 0 13 7 26 15 30 8 3 15 15 15 26 0 11 5 20 10 20 6
0 10 9 10 19 0 11 7 26 15 35 8 8 15 24 15 35 0 12 4 21 9 21 5 0 12 11 15 25
4 14 11 25 16 25 6 0 10 11 10 25 0 14 5 25 10 25 6 0 10 7 10 15 0 8 7 15 15
15 9 0 15 9 15 25 0 14 4 25 9 25 5 0 12 11 15 25 4 14 11 25 16 25 6 0 10 11
10 25 0 16 6 25 15 25 9 0 15 9 15 25 0 14 5 25 10 25 6 0 10 11 10 25 0 14 7
28 15 31 9 4 15 19 15 36 0 18 9 38 25 52 14 13 25 26 25 30 0 4 6 14 13 21
29 33 37 45 37 55 0 5 5 10 11 10 14 0 69 55 69 69 0 6 11 11 25 11 14 0 25 5
25 11 0 14 25 39 39 39 6 0 11 9 11 20 0 11 18 38 40 60 22 22 40 47 40 55 0
8 11 17 25 21 16 4 25 13 25 25 0 10 4 19 9 19 5 0 12 11 15 25 4 14 11 25 16
25 6 0 10 6 10 14 0 7 11 22 25 32 14 10 25 29 25 41 0 13 4 23 9 23 5 0 12
11 15 25 4 14 11 25 16 25 6 0 10 11 10 25 0 14 7 28 15 31 9 4 15 19 15 40 0
19 4 34 9 34 5 0 12 11 15 25 4 14 11 25 16 25 6 0 10 11 10 24 0 13 7 37 15
52 8 16 15 39 15 52 0 12 5 22 10 22 6 0 10 14 10 30 0 20 5 30 15 30 10 0 15
11 15 35 0 19 5 35 10 35 6 0 10 13 10 29 0 16 7 36 15 45 9 9 15 33 15 60 0
25 5 46 10 46 6 0 10 11 10 25 0 13 6 28 14 32 7 4 16 26 20 48 14 99 31 175
38 175 4 0 8 18 8 40 0 27 5 43 15 46 10 4 15 20 15 50 0 24 4 44 8 44 5 0 12
71 16 158 4 86 11 159 16 160 14 5 13 269 0 274 -6 2 -13 55 -17 121 -3 64
-10 117 -15 117 -4 0 -8 11 -8 25 0 16 -6 25 -15 25 -9 0 -15 9 -15 24 0 16
-7 26 -22 30 -30 8 -314 8 -510 -1 -157 -6 -158 -6 -158 -30 0 -14 -6 -23 -15
-23 -8 0 -15 -5 -15 -11 0 -14 -25 -39 -39 -39 -6 0 -11 -4 -11 -10 0 -5 -6
-10 -14 -10 -17 0 -116 -93 -116 -109 0 -7 -11 -22 -25 -35 -14 -13 -25 -33
-25 -45 0 -11 -4 -21 -10 -21 -5 0 -12 -11 -16 -25 -3 -14 -10 -25 -15 -25 -5
0 -9 -18 -9 -39 0 -22 -5 -41 -11 -43 -7 -2 -13 -42 -17 -98 -2 -52 -8 -97
-12 -100 -4 -3 -11 -160 -15 -350 -4 -192 -11 -346 -16 -348 -5 -2 -9 -37 -9
-78 0 -42 -4 -74 -10 -74 -5 0 -13 -18 -16 -40 -4 -22 -10 -40 -15 -40 -5 0
-9 -9 -9 -21 0 -11 -7 -27 -15 -35 -8 -9 -15 -24 -15 -35 0 -10 -4 -19 -10
-19 -5 0 -10 -16 -10 -35 0 -24 -5 -35 -15 -35 -9 0 -15 -9 -15 -25 0 -14 -4
-25 -10 -25 -5 0 -10 -10 -10 -22 0 -13 -7 -32 -15 -42 -8 -11 -15 -30 -15
-43 0 -13 -4 -23 -9 -23 -5 0 -12 -13 -16 -30 -4 -16 -11 -30 -16 -30 -5 0 -9
-16 -9 -35 0 -19 -4 -35 -10 -35 -5 0 -12 -11 -16 -25 -3 -14 -10 -25 -15 -25
-5 0 -9 -10 -9 -22 0 -13 -7 -32 -15 -42 -8 -11 -15 -30 -15 -43 0 -13 -4 -23
-10 -23 -5 0 -12 -11 -16 -25 -3 -14 -10 -25 -15 -25 -5 0 -9 -11 -9 -25 0
-14 -4 -25 -9 -25 -5 0 -12 -14 -16 -30 -4 -16 -11 -30 -16 -30 -5 0 -9 -9 -9
-21 0 -11 -7 -27 -15 -35 -8 -9 -15 -26 -15 -40 0 -13 -4 -24 -9 -24 -5 0 -12
-11 -15 -25 -4 -14 -11 -25 -16 -25 -6 0 -10 -11 -10 -25 0 -14 -4 -25 -9 -25
-5 0 -12 -11 -15 -25 -4 -14 -11 -25 -16 -25 -6 0 -10 -13 -10 -30 0 -16 -4
-30 -10 -30 -5 0 -12 -11 -16 -25 -3 -14 -10 -25 -15 -25 -5 0 -9 -11 -9 -25
0 -16 -6 -25 -15 -25 -8 0 -15 -7 -15 -15 0 -8 -4 -15 -10 -15 -5 0 -10 -11
-10 -25 0 -16 -6 -25 -15 -25 -9 0 -15 -9 -15 -25 0 -14 -4 -25 -10 -25 -5 0
-12 -11 -16 -25 -3 -14 -10 -25 -15 -25 -5 0 -9 -11 -9 -25 0 -16 -6 -25 -15
-25 -8 0 -15 -7 -15 -15 0 -8 -4 -15 -10 -15 -5 0 -10 -11 -10 -25 0 -16 -6
-25 -15 -25 -9 0 -15 -9 -15 -25 0 -14 -4 -25 -9 -25 -5 0 -12 -11 -15 -25 -4
-14 -11 -25 -16 -25 -6 0 -10 -7 -10 -15 0 -8 -4 -15 -9 -15 -5 0 -12 -11 -15
-25 -4 -14 -11 -25 -16 -25 -6 0 -10 -11 -10 -25 0 -14 -4 -25 -10 -25 -5 0
-12 -11 -16 -25 -3 -14 -10 -25 -15 -25 -5 0 -9 -9 -9 -19 0 -21 -30 -84 -42
-89 -5 -2 -8 -14 -8 -27 0 -13 -7 -30 -15 -39 -8 -8 -15 -24 -15 -36 0 -12 -7
-28 -15 -36 -8 -9 -15 -26 -15 -40 0 -13 -4 -24 -10 -24 -5 0 -10 -16 -10 -36
0 -19 -7 -42 -15 -50 -8 -9 -15 -29 -15 -45 0 -16 -4 -29 -10 -29 -5 0 -10
-15 -10 -32 0 -18 -7 -42 -15 -52 -8 -11 -15 -35 -15 -53 0 -18 -4 -33 -10
-33 -5 0 -10 -10 -10 -22 0 -13 -7 -36 -15 -52 -8 -15 -15 -41 -15 -57 0 -16
-4 -29 -9 -29 -5 0 -12 -22 -16 -50 -4 -27 -12 -50 -18 -51 -59 -4 -283 4
-287 10 -3 5 -54 11 -115 14 -62 3 -111 11 -113 17 -2 6 -37 10 -83 10 -43 0
-79 4 -79 10 0 5 -16 12 -35 16 -19 3 -35 10 -35 15 0 5 -5 9 -11 9 -14 0 -99
85 -99 99 0 6 -4 11 -9 11 -4 0 -11 21 -14 47 -3 26 -10 49 -16 51 -15 5 -15
149 0 154 7 2 13 58 17 156 2 84 9 152 13 152 5 0 9 56 9 124 0 91 3 125 13
128 9 3 13 46 15 156 2 84 7 152 11 152 5 0 11 35 14 77 3 43 11 79 16 81 6 2
11 21 11 43 0 21 4 39 9 39 5 0 12 16 15 35 4 19 11 35 16 35 6 0 10 14 10 30
0 17 4 30 10 30 5 0 12 11 16 25 3 14 10 25 15 25 5 0 9 11 9 25 0 14 4 25 9
25 5 0 13 10 17 23 4 12 17 32 30 44 13 12 24 29 24 38 0 8 5 15 10 15 6 0 10
7 10 15 0 8 7 15 15 15 8 0 15 7 15 15 0 8 4 15 9 15 5 0 13 10 16 21 8 24 60
79 75 79 6 0 10 4 10 10 0 5 11 12 25 16 14 3 25 10 25 15 0 5 30 9 68 9 75 0
97 14 109 71 3 16 9 29 14 29 5 0 9 12 9 26 0 14 7 32 15 40 8 9 15 29 15 45
0 16 5 29 10 29 6 0 10 16 10 35 0 24 5 35 15 35 11 0 15 11 15 40 0 22 5 40
10 40 6 0 10 28 10 65 0 51 3 65 15 65 11 0 15 12 15 45 0 25 5 45 10 45 6 0
10 14 10 30 0 20 5 30 15 30 12 0 15 14 15 65 0 36 4 65 9 65 4 0 11 21 14 47
3 26 10 49 16 51 7 2 11 33 11 77 0 40 4 75 10 77 5 2 13 49 16 106 4 56 10
102 14 102 4 0 10 62 12 138 2 80 9 146 16 159 17 30 17 434 0 451 -7 7 -13
68 -16 172 -3 88 -8 160 -12 160 -4 0 -10 69 -14 153 -4 83 -11 154 -16 155
-6 2 -10 50 -10 108 0 63 -4 104 -10 104 -5 0 -10 9 -10 19 0 42 -10 51 -61
51 -27 0 -49 -4 -49 -9z"/>
<path d="M4570 8475 c0 -8 5 -15 10 -15 6 0 10 7 10 15 0 8 -4 15 -10 15 -5 0
-10 -7 -10 -15z"/>
<path d="M7350 8425 c0 -8 5 -15 10 -15 6 0 10 7 10 15 0 8 -4 15 -10 15 -5 0
-10 -7 -10 -15z"/>
<path d="M4620 8325 c0 -8 5 -15 10 -15 6 0 10 7 10 15 0 8 -4 15 -10 15 -5 0
-10 -7 -10 -15z"/>
<path d="M4700 8120 c0 -5 5 -10 10 -10 6 0 10 5 10 10 0 6 -4 10 -10 10 -5 0
-10 -4 -10 -10z"/>
<path d="M7020 7940 c0 -5 5 -10 10 -10 6 0 10 5 10 10 0 6 -4 10 -10 10 -5 0
-10 -4 -10 -10z"/>
<path d="M6940 7860 c0 -5 5 -10 10 -10 6 0 10 5 10 10 0 6 -4 10 -10 10 -5 0
-10 -4 -10 -10z"/>
<path d="M4700 7705 c0 -8 5 -15 10 -15 6 0 10 7 10 15 0 8 -4 15 -10 15 -5 0
-10 -7 -10 -15z"/>
<path d="M4620 7500 c0 -5 5 -10 10 -10 6 0 10 5 10 10 0 6 -4 10 -10 10 -5 0
-10 -4 -10 -10z"/>
<path d="M4570 7370 c0 -5 5 -10 10 -10 6 0 10 5 10 10 0 6 -4 10 -10 10 -5 0
-10 -4 -10 -10z"/>
<path d="M6530 7345 c0 -8 5 -15 10 -15 6 0 10 7 10 15 0 8 -4 15 -10 15 -5 0
-10 -7 -10 -15z"/>
<path d="M6450 7190 c0 -5 5 -10 10 -10 6 0 10 5 10 10 0 6 -4 10 -10 10 -5 0
-10 -4 -10 -10z"/>
<path d="M4470 7085 c0 -8 5 -15 10 -15 6 0 10 7 10 15 0 8 -4 15 -10 15 -5 0
-10 -7 -10 -15z"/>
<path d="M6370 7034 c0 -9 5 -14 12 -12 18 6 21 28 4 28 -9 0 -16 -7 -16 -16z"/>
<path d="M2820 6925 c0 -30 5 -55 10 -55 6 0 10 25 10 55 0 30 -4 55 -10 55
-5 0 -10 -25 -10 -55z"/>
<path d="M4290 6650 c0 -5 5 -10 10 -10 6 0 10 5 10 10 0 6 -4 10 -10 10 -5 0
-10 -4 -10 -10z"/>
<path d="M8815 6570 c3 -5 10 -10 16 -10 5 0 9 5 9 10 0 6 -7 10 -16 10 -8 0
-12 -4 -9 -10z"/>
<path d="M4210 6520 c0 -5 5 -10 10 -10 6 0 10 5 10 10 0 6 -4 10 -10 10 -5 0
-10 -4 -10 -10z"/>
<path d="M8660 6520 c0 -5 7 -10 15 -10 8 0 15 5 15 10 0 6 -7 10 -15 10 -8 0
-15 -4 -15 -10z"/>
<path d="M8250 6110 c0 -5 7 -10 15 -10 8 0 15 5 15 10 0 6 -7 10 -15 10 -8 0
-15 -4 -15 -10z"/>
<path d="M8717 6073 c-12 -11 -8 -23 8 -23 8 0 15 7 15 15 0 16 -12 20 -23 8z"/>
<path d="M8120 6030 c0 -5 7 -10 15 -10 8 0 15 5 15 10 0 6 -7 10 -15 10 -8 0
-15 -4 -15 -10z"/>
<path d="M8640 5805 c0 -8 5 -15 10 -15 6 0 10 7 10 15 0 8 -4 15 -10 15 -5 0
-10 -7 -10 -15z"/>
<path d="M8560 5565 c0 -14 5 -25 10 -25 6 0 10 11 10 25 0 14 -4 25 -10 25
-5 0 -10 -11 -10 -25z"/>
<path d="M8460 5295 c0 -8 5 -15 10 -15 6 0 10 7 10 15 0 8 -4 15 -10 15 -5 0
-10 -7 -10 -15z"/>
<path d="M8350 5060 c0 -5 7 -10 15 -10 8 0 15 5 15 10 0 6 -7 10 -15 10 -8 0
-15 -4 -15 -10z"/>
<path d="M8230 4775 c0 -8 5 -15 10 -15 6 0 10 7 10 15 0 8 -4 15 -10 15 -5 0
-10 -7 -10 -15z"/>
<path d="M8150 4625 c0 -8 5 -15 10 -15 6 0 10 7 10 15 0 8 -4 15 -10 15 -5 0
-10 -7 -10 -15z"/>
<path d="M8560 4495 c0 -8 5 -15 10 -15 6 0 10 7 10 15 0 8 -4 15 -10 15 -5 0
-10 -7 -10 -15z"/>
<path d="M8050 4415 c0 -8 5 -15 10 -15 6 0 10 7 10 15 0 8 -4 15 -10 15 -5 0
-10 -7 -10 -15z"/>
<path d="M8460 4285 c0 -8 5 -15 10 -15 6 0 10 7 10 15 0 8 -4 15 -10 15 -5 0
-10 -7 -10 -15z"/>
<path d="M7970 4195 c0 -14 5 -25 10 -25 6 0 10 11 10 25 0 14 -4 25 -10 25
-5 0 -10 -11 -10 -25z"/>
<path d="M8460 4005 c0 -8 5 -15 10 -15 6 0 10 7 10 15 0 8 -4 15 -10 15 -5 0
-10 -7 -10 -15z"/>
</g>
</svg>
