<?xml version="1.0" encoding="UTF-8"?>
<svg xmlns="http://www.w3.org/2000/svg" xmlns:xlink="http://www.w3.org/1999/xlink" width="20px" height="20px" viewBox="0 0 20 20" version="1.1">
<g id="surface1">
<path style="fill:none;stroke-width:46;stroke-linecap:butt;stroke-linejoin:miter;stroke:rgb(81.960784%,79.607843%,74.117647%);stroke-opacity:1;stroke-miterlimit:4;" d="M 990.9375 566.5625 C 990.9375 812.4375 791.4375 1011.9375 545.5625 1011.9375 C 299.46875 1011.9375 99.96875 812.4375 99.96875 566.5625 C 99.96875 320.46875 299.46875 120.96875 545.5625 120.96875 C 791.4375 120.96875 990.9375 320.46875 990.9375 566.5625 Z M 990.9375 566.5625 " transform="matrix(0.0178571,0,0,0.0178571,0,0)"/>
<path style="fill-rule:nonzero;fill:rgb(81.960784%,79.607843%,74.117647%);fill-opacity:1;stroke-width:1;stroke-linecap:butt;stroke-linejoin:miter;stroke:rgb(81.960784%,79.607843%,74.117647%);stroke-opacity:1;stroke-miterlimit:4;" d="M 392.4375 544.90625 C 392.4375 565.6875 375.8125 582.53125 355.03125 582.53125 C 334.25 582.53125 317.40625 565.6875 317.40625 544.90625 C 317.40625 524.34375 334.25 507.5 355.03125 507.5 C 375.8125 507.5 392.4375 524.34375 392.4375 544.90625 Z M 392.4375 544.90625 " transform="matrix(0.0178571,0,0,0.0178571,0,0)"/>
<path style="fill-rule:nonzero;fill:rgb(81.960784%,79.607843%,74.117647%);fill-opacity:1;stroke-width:1;stroke-linecap:butt;stroke-linejoin:miter;stroke:rgb(81.960784%,79.607843%,74.117647%);stroke-opacity:1;stroke-miterlimit:4;" d="M 840.4375 434 C 840.4375 454.78125 823.8125 471.40625 803.03125 471.40625 C 782.25 471.40625 765.40625 454.78125 765.40625 434 C 765.40625 413.21875 782.25 396.59375 803.03125 396.59375 C 823.8125 396.59375 840.4375 413.21875 840.4375 434 Z M 840.4375 434 " transform="matrix(0.0178571,0,0,0.0178571,0,0)"/>
<path style="fill:none;stroke-width:46;stroke-linecap:butt;stroke-linejoin:miter;stroke:rgb(81.960784%,79.607843%,74.117647%);stroke-opacity:1;stroke-miterlimit:4;" d="M 301 941.9375 L 301 1100.09375 " transform="matrix(0.0178571,0,0,0.0178571,0,0)"/>
<path style=" stroke:none;fill-rule:nonzero;fill:rgb(81.960784%,79.607843%,74.117647%);fill-opacity:1;" d="M 11.117188 14.652344 C 11.117188 14.652344 11.433594 14.617188 11.847656 14.332031 C 12.082031 14.167969 12.207031 14.027344 12.347656 13.863281 C 12.363281 13.847656 12.378906 13.828125 12.394531 13.8125 C 12.777344 13.375 13.4375 12.222656 13.4375 12.222656 C 13.4375 12.222656 13.578125 11.957031 13.722656 11.632812 L 8.292969 13.011719 C 8.886719 13.601562 9.652344 14.242188 9.75 14.304688 C 9.757812 14.308594 9.765625 14.3125 9.773438 14.316406 C 9.964844 14.441406 10.523438 14.796875 11.117188 14.652344 Z M 11.117188 14.652344 "/>
<path style="fill:none;stroke-width:40;stroke-linecap:butt;stroke-linejoin:miter;stroke:rgb(81.960784%,79.607843%,74.117647%);stroke-opacity:1;stroke-miterlimit:4;" d="M 464.40625 728.65625 C 497.65625 761.6875 540.53125 797.5625 546 801.0625 C 546.4375 801.28125 546.875 801.5 547.3125 801.71875 C 558.03125 808.71875 589.3125 828.625 622.5625 820.53125 C 622.5625 820.53125 640.28125 818.5625 663.46875 802.59375 C 676.59375 793.40625 683.59375 785.53125 691.46875 776.34375 C 692.34375 775.46875 693.21875 774.375 694.09375 773.5 C 715.53125 749 752.5 684.46875 752.5 684.46875 C 752.5 684.46875 760.375 669.59375 768.46875 651.4375 M 464.40625 728.65625 C 439.6875 704.15625 420.21875 681.1875 425.90625 675.0625 C 439.46875 660.40625 531.125 632.625 600.90625 615.5625 C 669.375 598.71875 765.40625 579.03125 782.03125 588.4375 C 791.65625 594.125 779.84375 626.0625 768.46875 651.4375 M 464.40625 728.65625 L 768.46875 651.4375 " transform="matrix(0.0178571,0,0,0.0178571,0,0)"/>
<path style="fill-rule:nonzero;fill:rgb(100%,100%,100%);fill-opacity:1;stroke-width:2;stroke-linecap:butt;stroke-linejoin:miter;stroke:rgb(81.960784%,79.607843%,74.117647%);stroke-opacity:1;stroke-miterlimit:4;" d="M 614.46875 764.09375 C 597.40625 766.9375 575.96875 776.5625 577.0625 781.59375 C 577.9375 786.40625 603.96875 792.09375 621.03125 787.9375 C 638.09375 784 654.9375 776.5625 655.59375 771.09375 C 656.03125 765.40625 631.53125 761.03125 614.46875 764.09375 Z M 614.46875 764.09375 " transform="matrix(0.0178571,0,0,0.0178571,0,0)"/>
<path style="fill-rule:nonzero;fill:rgb(81.960784%,79.607843%,74.117647%);fill-opacity:1;stroke-width:1;stroke-linecap:butt;stroke-linejoin:miter;stroke:rgb(81.960784%,79.607843%,74.117647%);stroke-opacity:1;stroke-miterlimit:4;" d="M 897.09375 1100.09375 L 850.5 915.46875 L 885.5 872.59375 L 944.78125 1100.09375 Z M 897.09375 1100.09375 " transform="matrix(0.0178571,0,0,0.0178571,0,0)"/>
<path style="fill:none;stroke-width:1;stroke-linecap:butt;stroke-linejoin:miter;stroke:rgb(48.235294%,38.039216%,100%);stroke-opacity:1;stroke-dasharray:10,10;stroke-miterlimit:4;" d="M 5.03125 0.4375 L 1114.96875 0.4375 C 1117.59375 0.4375 1119.5625 2.40625 1119.5625 5.03125 L 1119.5625 1114.96875 C 1119.5625 1117.59375 1117.59375 1119.5625 1114.96875 1119.5625 L 5.03125 1119.5625 C 2.40625 1119.5625 0.4375 1117.59375 0.4375 1114.96875 L 0.4375 5.03125 C 0.4375 2.40625 2.40625 0.4375 5.03125 0.4375 Z M 5.03125 0.4375 " transform="matrix(0.0178571,0,0,0.0178571,0,0)"/>
</g>
</svg>
